<svg width="277" height="150" viewBox="0 0 277 150" fill="none" xmlns="http://www.w3.org/2000/svg">
<g opacity="0.6">
<g filter="url(#filter0_b_8912_24739)">
<path d="M0 24C0 10.7452 10.7452 0 24 0H253C266.255 0 277 10.7452 277 24V126C277 139.255 266.255 150 253 150H24C10.7452 150 0 139.255 0 126V24Z" fill="url(#paint0_linear_8912_24739)"/>
</g>
<g style="mix-blend-mode:overlay">
<path d="M0.5 24C0.5 11.0213 11.0213 0.5 24 0.5H253C265.979 0.5 276.5 11.0213 276.5 24V126C276.5 138.979 265.979 149.5 253 149.5H24C11.0213 149.5 0.5 138.979 0.5 126V24Z" stroke="url(#paint1_radial_8912_24739)"/>
<path d="M0.5 24C0.5 11.0213 11.0213 0.5 24 0.5H253C265.979 0.5 276.5 11.0213 276.5 24V126C276.5 138.979 265.979 149.5 253 149.5H24C11.0213 149.5 0.5 138.979 0.5 126V24Z" stroke="url(#paint2_radial_8912_24739)"/>
<path d="M0.5 24C0.5 11.0213 11.0213 0.5 24 0.5H253C265.979 0.5 276.5 11.0213 276.5 24V126C276.5 138.979 265.979 149.5 253 149.5H24C11.0213 149.5 0.5 138.979 0.5 126V24Z" stroke="url(#paint3_radial_8912_24739)"/>
</g>
</g>
<path d="M41 84.6605L47.8586 64.254H52.8544L59.5436 84.6605H55.6486L53.9551 79.6647H46.1651L44.5563 84.6605H41ZM50.0601 67.387L47.0965 76.8704H53.1084L50.0601 67.387ZM60.3903 84.6605L66.9949 74.1609L60.8137 64.254H65.1321L69.5351 71.536L73.8535 64.254H77.7485L71.7367 74.0762L78.2566 84.6605H73.9382L69.1118 76.7011L64.2854 84.6605H60.3903ZM79.1033 84.6605L85.8772 64.254H90.873L97.6469 84.6605H93.7519L92.0584 79.6647H84.2684L82.6596 84.6605H79.1033ZM88.1634 67.387L85.1152 76.8704H91.2117L88.1634 67.387ZM105.945 84.6605V64.254H111.025L116.36 78.2252L121.694 64.254H126.69V84.6605H122.88V69.2498L116.783 84.6605H115.598L109.332 69.2498V84.6605H105.945ZM128.976 84.6605L135.835 64.254H140.831L147.605 84.6605H143.625L142.016 79.6647H134.141L132.533 84.6605H128.976ZM138.121 67.387L135.073 76.8704H141.085L138.121 67.387ZM149.806 84.6605V64.254H154.378L163.015 78.9873V64.254H166.487V84.6605H162.507L153.278 68.9958V84.6605H149.806ZM177.325 84.9992C174.616 84.9992 172.583 84.4064 171.313 83.221C170.638 82.5901 170.095 81.8308 169.717 80.9874C169.339 80.1441 169.133 79.2338 169.112 78.3099H172.753C172.922 79.58 173.261 80.5114 173.938 81.1041C174.616 81.7815 175.716 82.1202 177.325 82.1202C178.426 82.1202 179.357 81.8662 180.119 81.2735C180.797 80.6808 181.135 79.9187 181.135 78.9873C181.135 78.0559 180.881 77.2938 180.289 76.8704C179.696 76.4471 178.595 76.1084 176.902 75.8544C174.362 75.5157 172.499 74.8383 171.398 73.9915C170.213 73.1448 169.704 71.7053 169.704 69.8425C169.704 68.149 170.382 66.7942 171.652 65.6935C173.007 64.5927 174.7 64 176.817 64C179.019 64 180.797 64.508 182.067 65.5241C183.337 66.5402 184.099 67.9797 184.268 69.9272H180.797C180.543 68.8264 180.204 68.0644 179.527 67.641C178.934 67.1329 178.003 66.8789 176.817 66.8789C175.716 66.8789 174.785 67.1329 174.192 67.641C173.6 68.0644 173.261 68.7417 173.261 69.5038C173.261 70.4352 173.6 71.1126 174.108 71.536C174.7 71.9594 175.801 72.2981 177.495 72.5521C180.035 72.8908 181.898 73.4835 183.083 74.4149C184.268 75.2616 184.861 76.7011 184.861 78.6486C184.861 80.4268 184.184 81.9509 182.744 83.1363C181.228 84.4014 179.299 85.0645 177.325 84.9992ZM185.369 84.6605L192.228 64.254H197.224L203.997 84.6605H200.018L198.409 79.6647H190.534L188.925 84.6605H185.369ZM194.514 67.387L191.466 76.8704H197.478L194.514 67.387ZM206.284 84.6605V64.254H213.142C215.513 64.254 217.376 64.7621 218.731 65.7782C220.086 66.7096 220.763 68.2337 220.763 70.2659V70.3506C220.763 73.2295 219.239 75.0923 216.191 75.8544L221.948 84.6605H217.884L212.465 76.4471H210.094V84.6605H206.284ZM210.094 73.7375H213.142C215.682 73.7375 217.037 72.6367 217.037 70.4352V70.3506C217.037 69.2498 216.699 68.403 216.021 67.9797C215.344 67.4716 214.412 67.2176 213.142 67.2176H210.094V73.7375ZM227.96 81.6969H230.246C232.448 81.6969 234.141 81.1041 235.327 79.834C236.428 78.6486 237.02 76.8704 237.02 74.4996V74.3302C237.02 69.5885 234.734 67.2176 230.162 67.2176H227.96V81.6969ZM224.15 84.6605V64.254H230.416C233.887 64.254 236.512 65.1854 238.29 66.9636C240.069 68.7417 241 71.1973 241 74.2456V74.4996C241 77.6325 240.069 80.0881 238.29 81.9509C236.428 83.729 233.803 84.6605 230.331 84.6605H224.15Z" fill="white"/>
<defs>
<filter id="filter0_b_8912_24739" x="-100" y="-100" width="477" height="350" filterUnits="userSpaceOnUse" color-interpolation-filters="sRGB">
<feFlood flood-opacity="0" result="BackgroundImageFix"/>
<feGaussianBlur in="BackgroundImageFix" stdDeviation="50"/>
<feComposite in2="SourceAlpha" operator="in" result="effect1_backgroundBlur_8912_24739"/>
<feBlend mode="normal" in="SourceGraphic" in2="effect1_backgroundBlur_8912_24739" result="shape"/>
</filter>
<linearGradient id="paint0_linear_8912_24739" x1="-28.7772" y1="-11.5909" x2="683.624" y2="476.617" gradientUnits="userSpaceOnUse">
<stop stop-color="#211351" stop-opacity="0.6"/>
<stop offset="1" stop-color="white" stop-opacity="0.32"/>
</linearGradient>
<radialGradient id="paint1_radial_8912_24739" cx="0" cy="0" r="1" gradientUnits="userSpaceOnUse" gradientTransform="translate(138.5 75) rotate(90) scale(75 0)">
<stop stop-color="#0F0F0F"/>
<stop offset="1" stop-color="#151515" stop-opacity="0"/>
</radialGradient>
<radialGradient id="paint2_radial_8912_24739" cx="0" cy="0" r="1" gradientUnits="userSpaceOnUse" gradientTransform="translate(138.5 75) rotate(90) scale(75 550.915)">
<stop stop-color="#0A7ABF"/>
<stop offset="1" stop-color="white" stop-opacity="0.7"/>
</radialGradient>
<radialGradient id="paint3_radial_8912_24739" cx="0" cy="0" r="1" gradientUnits="userSpaceOnUse" gradientTransform="translate(138.5 75) rotate(90) scale(75 472.064)">
<stop stop-color="white"/>
<stop offset="1" stop-color="white" stop-opacity="0"/>
</radialGradient>
</defs>
</svg>
