<svg width="277" height="150" viewBox="0 0 277 150" fill="none" xmlns="http://www.w3.org/2000/svg">
<g opacity="0.6">
<g filter="url(#filter0_b_8912_24750)">
<path d="M0 24C0 10.7452 10.7452 0 24 0H253C266.255 0 277 10.7452 277 24V126C277 139.255 266.255 150 253 150H24C10.7452 150 0 139.255 0 126V24Z" fill="url(#paint0_linear_8912_24750)"/>
</g>
<g style="mix-blend-mode:overlay">
<path d="M0.5 24C0.5 11.0213 11.0213 0.5 24 0.5H253C265.979 0.5 276.5 11.0213 276.5 24V126C276.5 138.979 265.979 149.5 253 149.5H24C11.0213 149.5 0.5 138.979 0.5 126V24Z" stroke="url(#paint1_radial_8912_24750)"/>
<path d="M0.5 24C0.5 11.0213 11.0213 0.5 24 0.5H253C265.979 0.5 276.5 11.0213 276.5 24V126C276.5 138.979 265.979 149.5 253 149.5H24C11.0213 149.5 0.5 138.979 0.5 126V24Z" stroke="url(#paint2_radial_8912_24750)"/>
<path d="M0.5 24C0.5 11.0213 11.0213 0.5 24 0.5H253C265.979 0.5 276.5 11.0213 276.5 24V126C276.5 138.979 265.979 149.5 253 149.5H24C11.0213 149.5 0.5 138.979 0.5 126V24Z" stroke="url(#paint3_radial_8912_24750)"/>
</g>
</g>
<g clip-path="url(#clip0_8912_24750)">
<path d="M163.304 55L155.001 56.7645V90.289H163.304V55Z" fill="white"/>
<mask id="mask0_8912_24750" style="mask-type:luminance" maskUnits="userSpaceOnUse" x="99" y="55" width="80" height="47">
<path d="M179 55H99V101.937H179V55Z" fill="white"/>
</mask>
<g mask="url(#mask0_8912_24750)">
<path d="M139.663 65.0216C137.129 65.0216 134.652 65.773 132.545 67.1809C130.438 68.5887 128.796 70.5898 127.826 72.9309C126.856 75.2721 126.602 77.8483 127.097 80.3336C127.591 82.819 128.811 85.102 130.603 86.8938C132.395 88.6857 134.678 89.906 137.163 90.4003C139.649 90.8947 142.225 90.641 144.566 89.6712C146.907 88.7015 148.908 87.0593 150.316 84.9523C151.724 82.8453 152.476 80.3681 152.476 77.8341C152.475 74.4361 151.125 71.1774 148.722 68.7746C146.32 66.3719 143.061 65.0219 139.663 65.0216ZM139.663 81.9857C138.842 81.9857 138.039 81.7422 137.357 81.286C136.674 80.8298 136.142 80.1814 135.827 79.4228C135.513 78.6642 135.431 77.8295 135.591 77.0241C135.751 76.2188 136.147 75.479 136.727 74.8984C137.308 74.3178 138.048 73.9224 138.853 73.7622C139.658 73.602 140.493 73.6842 141.252 73.9984C142.01 74.3127 142.659 74.8448 143.115 75.5275C143.571 76.2103 143.815 77.0129 143.815 77.8341C143.815 78.9351 143.377 79.9911 142.599 80.7697C141.82 81.5483 140.764 81.9857 139.663 81.9857Z" fill="white"/>
<path d="M139.663 93.6334C140.484 93.6334 141.287 93.8769 141.969 94.3331C142.652 94.7893 143.184 95.4377 143.499 96.1963C143.813 96.9549 143.895 97.7897 143.735 98.595C143.575 99.4004 143.179 100.14 142.599 100.721C142.018 101.301 141.278 101.697 140.473 101.857C139.667 102.017 138.833 101.935 138.074 101.621C137.315 101.306 136.667 100.774 136.211 100.092C135.755 99.4089 135.511 98.6062 135.511 97.7851C135.511 96.684 135.949 95.628 136.727 94.8494C137.506 94.0708 138.562 93.6334 139.663 93.6334Z" fill="white"/>
<path d="M121.188 71.6297C122.208 69.9784 122.768 68.0849 122.812 66.1447C122.855 64.2044 122.38 62.2878 121.434 60.5927C120.489 58.8977 119.109 57.4856 117.436 56.5024C115.762 55.5193 113.857 55.0006 111.916 55H99V90.289H113.531C115.692 90.2882 117.805 89.6447 119.6 88.4405C121.395 87.2362 122.792 85.5255 123.613 83.5256C124.434 81.5258 124.641 79.3271 124.21 77.2089C123.778 75.0908 122.726 73.1488 121.188 71.6297ZM107.315 63.3033H111.928C112.616 63.3033 113.276 63.5767 113.763 64.0633C114.249 64.5499 114.523 65.2099 114.523 65.8981C114.523 66.5863 114.249 67.2463 113.763 67.7329C113.276 68.2195 112.616 68.4929 111.928 68.4929H107.315V63.3033ZM113.542 81.9857H107.315V76.7962H113.542C114.23 76.7962 114.89 77.0695 115.377 77.5562C115.864 78.0428 116.137 78.7028 116.137 79.3909C116.137 80.0791 115.864 80.7391 115.377 81.2257C114.89 81.7124 114.23 81.9857 113.542 81.9857Z" fill="white"/>
<path d="M178.989 73.7978V65.4945H174.837V59.1517L166.534 60.9161V82.4009C166.534 87.4636 169.682 90.3813 174.318 90.6235C174.364 90.6235 174.422 90.635 174.468 90.635H174.549C174.652 90.635 174.745 90.6466 174.849 90.6466H174.952C176.367 90.6403 177.757 90.2837 179 89.6086V83.4965C178.395 83.6608 177.77 83.7423 177.143 83.7387C175.483 83.7387 174.849 82.2856 174.849 80.3136V73.7978H178.989Z" fill="white"/>
</g>
</g>
<defs>
<filter id="filter0_b_8912_24750" x="-100" y="-100" width="477" height="350" filterUnits="userSpaceOnUse" color-interpolation-filters="sRGB">
<feFlood flood-opacity="0" result="BackgroundImageFix"/>
<feGaussianBlur in="BackgroundImageFix" stdDeviation="50"/>
<feComposite in2="SourceAlpha" operator="in" result="effect1_backgroundBlur_8912_24750"/>
<feBlend mode="normal" in="SourceGraphic" in2="effect1_backgroundBlur_8912_24750" result="shape"/>
</filter>
<linearGradient id="paint0_linear_8912_24750" x1="-28.7772" y1="-11.5909" x2="683.624" y2="476.617" gradientUnits="userSpaceOnUse">
<stop stop-color="#211351" stop-opacity="0.6"/>
<stop offset="1" stop-color="white" stop-opacity="0.32"/>
</linearGradient>
<radialGradient id="paint1_radial_8912_24750" cx="0" cy="0" r="1" gradientUnits="userSpaceOnUse" gradientTransform="translate(138.5 75) rotate(90) scale(75 0)">
<stop stop-color="#0F0F0F"/>
<stop offset="1" stop-color="#151515" stop-opacity="0"/>
</radialGradient>
<radialGradient id="paint2_radial_8912_24750" cx="0" cy="0" r="1" gradientUnits="userSpaceOnUse" gradientTransform="translate(138.5 75) rotate(90) scale(75 550.915)">
<stop stop-color="#0A7ABF"/>
<stop offset="1" stop-color="white" stop-opacity="0.7"/>
</radialGradient>
<radialGradient id="paint3_radial_8912_24750" cx="0" cy="0" r="1" gradientUnits="userSpaceOnUse" gradientTransform="translate(138.5 75) rotate(90) scale(75 472.064)">
<stop stop-color="white"/>
<stop offset="1" stop-color="white" stop-opacity="0"/>
</radialGradient>
<clipPath id="clip0_8912_24750">
<rect width="80" height="46.9367" fill="white" transform="translate(99 55)"/>
</clipPath>
</defs>
</svg>
