<svg width="100" height="47" viewBox="0 0 100 47" fill="none" xmlns="http://www.w3.org/2000/svg">
<path d="M90.7646 46.6672C87.3125 46.6672 84.5817 45.8042 82.5723 44.0782C80.5628 42.3521 79.5581 39.9434 79.5581 36.8519C79.5581 33.812 80.4469 31.4033 82.2245 29.6257C84.002 27.8481 86.5396 26.9594 89.8371 26.9594C92.0011 26.9594 93.8431 27.3715 95.3631 28.1959C96.9088 29.0203 98.0681 30.1538 98.8409 31.5965C99.6138 33.0134 100 34.6364 100 36.4655V38.7068H84.1953C84.5302 41.4633 86.926 42.8416 91.3828 42.8416C92.5679 42.8416 93.7787 42.7385 95.0153 42.5324C96.2518 42.3264 97.3339 42.043 98.2613 41.6823V45.4307C97.3854 45.7913 96.2518 46.0876 94.8607 46.3195C93.4953 46.5513 92.1299 46.6672 90.7646 46.6672ZM95.4017 35.3835C95.3502 33.9151 94.8221 32.7816 93.8173 31.9829C92.8384 31.1843 91.4859 30.785 89.7598 30.785C88.0596 30.785 86.7199 31.1972 85.741 32.0216C84.762 32.846 84.2468 33.9666 84.1953 35.3835H95.4017Z" fill="white"/>
<path d="M71.7185 46.6672C69.5545 46.6672 67.6481 46.2808 65.9994 45.508C64.3764 44.7351 63.114 43.6145 62.2124 42.146C61.3107 40.6776 60.8599 38.9129 60.8599 36.8519C60.8599 34.791 61.3107 33.0263 62.2124 31.5579C63.1398 30.0637 64.415 28.9301 66.038 28.1573C67.6868 27.3587 69.606 26.9594 71.7958 26.9594C74.6812 26.9594 76.9868 27.5261 78.7129 28.6596V32.5626C77.0384 31.3775 74.9001 30.785 72.2982 30.785C70.3145 30.785 68.7301 31.2874 67.5451 32.2921C66.3858 33.271 65.8062 34.791 65.8062 36.8519C65.8062 38.8871 66.3858 40.3942 67.5451 41.3732C68.7301 42.3521 70.2887 42.8416 72.2209 42.8416C74.8228 42.8416 77.0641 42.2233 78.9448 40.9867V44.851C78.0173 45.4693 76.9611 45.9201 75.776 46.2035C74.6167 46.5127 73.2642 46.6672 71.7185 46.6672Z" fill="white"/>
<path d="M41.0625 27.539H45.7769V30.0508C46.6528 28.9945 47.6962 28.2217 48.907 27.7322C50.1178 27.217 51.393 26.9594 52.7327 26.9594C55.2316 26.9594 57.0993 27.642 58.3359 29.0074C59.5725 30.347 60.1907 32.1375 60.1907 34.3788V46.0876H55.3217V34.8425C55.3217 32.1375 54.0594 30.785 51.5347 30.785C50.427 30.785 49.3836 31.0555 48.4047 31.5965C47.4257 32.1117 46.6013 32.8975 45.9315 33.9537V46.0876H41.0625V27.539Z" fill="white"/>
<path d="M29.2049 46.6672C26.9893 46.6672 25.1731 46.0876 23.7562 44.9283C22.3393 43.7433 21.6309 42.1589 21.6309 40.1752C21.6309 38.1143 22.3007 36.5042 23.6403 35.3449C24.9799 34.1856 26.8605 33.6059 29.2822 33.6059C31.6265 33.6059 33.6488 34.0825 35.3491 35.0357V34.5334C35.3491 33.2195 34.9369 32.2663 34.1125 31.6738C33.3139 31.0813 32.0129 30.785 30.2096 30.785C29.0761 30.785 27.9554 30.9009 26.8477 31.1328C25.7399 31.3389 24.7609 31.6351 23.9108 32.0216V28.1959C24.6837 27.8353 25.7141 27.539 27.0022 27.3071C28.3161 27.0753 29.5784 26.9594 30.7892 26.9594C34.0095 26.9594 36.3925 27.6549 37.9382 29.0461C39.4839 30.4115 40.2568 32.3178 40.2568 34.7652V46.0876H35.6582V44.2714C34.8596 45.0442 33.9451 45.6368 32.9146 46.049C31.9099 46.4611 30.6733 46.6672 29.2049 46.6672ZM30.4028 43.1121C31.4848 43.1121 32.4638 42.906 33.3397 42.4938C34.2156 42.0559 34.8854 41.4633 35.3491 40.7162V38.6682C33.9322 37.6634 32.3092 37.1611 30.4801 37.1611C27.8781 37.1611 26.5772 38.1658 26.5772 40.1752C26.5772 41.1542 26.8992 41.8884 27.5432 42.3779C28.213 42.8674 29.1662 43.1121 30.4028 43.1121Z" fill="white"/>
<path d="M2.74365 31.2487H0V27.539H2.74365V24.3316C2.74365 22.0904 3.46498 20.3643 4.90765 19.1535C6.37608 17.9427 8.21806 17.3373 10.4336 17.3373C11.6702 17.3373 12.7522 17.5176 13.6796 17.8783V21.8199C12.984 21.5107 12.224 21.3561 11.3997 21.3561C10.2146 21.3561 9.28718 21.6395 8.61737 22.2063C7.94756 22.7731 7.61266 23.5974 7.61266 24.6794V27.539H15.805V18.7671H20.674V46.0876H15.805V31.2487H7.61266V46.0876H2.74365V31.2487Z" fill="white"/>
<g opacity="0.8">
<path d="M7.54753 2.76354C7.41717 3.5196 7.04783 4.14965 6.4395 4.65369C5.83118 5.14904 5.00125 5.39672 3.94971 5.39672H2.20295L1.5251 9.19006H0.338867L1.95528 0.104285H4.88827C5.79207 0.104285 6.46992 0.299818 6.92182 0.690884C7.37372 1.07326 7.59967 1.58599 7.59967 2.22908C7.59967 2.34205 7.58229 2.52021 7.54753 2.76354ZM4.11918 4.45816C4.77095 4.45816 5.27934 4.31042 5.64434 4.01495C6.00933 3.71079 6.23963 3.29365 6.33522 2.76354C6.36129 2.60711 6.37433 2.46372 6.37433 2.33336C6.37433 1.47302 5.82249 1.04284 4.71881 1.04284H2.97205L2.37241 4.45816H4.11918Z" fill="#FFE1F7"/>
<path d="M12.5545 9.28131C11.7984 9.28131 11.1336 9.12488 10.5601 8.81203C9.9865 8.49049 9.53894 8.04293 9.2174 7.46937C8.90455 6.89581 8.74812 6.23968 8.74812 5.501C8.74812 4.47554 8.97841 3.54567 9.439 2.71139C9.90828 1.86843 10.5514 1.20796 11.3683 0.729991C12.1852 0.24333 13.0976 0 14.1057 0C14.8705 0 15.5396 0.160772 16.1132 0.482315C16.6955 0.795169 17.143 1.23838 17.4559 1.81194C17.7687 2.37681 17.9251 3.02859 17.9251 3.76727C17.9251 4.80143 17.6905 5.73999 17.2212 6.58295C16.7606 7.41723 16.1219 8.07769 15.305 8.56436C14.4881 9.04233 13.5713 9.28131 12.5545 9.28131ZM12.724 8.21239C13.4887 8.21239 14.1709 8.01686 14.7705 7.6258C15.3789 7.22604 15.8525 6.69158 16.1914 6.02242C16.5303 5.35326 16.6998 4.62762 16.6998 3.84549C16.6998 2.98514 16.4521 2.30729 15.9568 1.81194C15.4614 1.31659 14.7879 1.06892 13.9363 1.06892C13.1715 1.06892 12.485 1.26879 11.8767 1.66855C11.277 2.05962 10.8077 2.58973 10.4688 3.25889C10.1386 3.91935 9.97346 4.64066 9.97346 5.42279C9.97346 6.28313 10.2168 6.96533 10.7035 7.46937C11.1988 7.96472 11.8723 8.21239 12.724 8.21239Z" fill="#FFE1F7"/>
<path d="M32.2008 0.104285L27.9642 9.19006H26.6346L25.8134 1.87712L22.3459 9.19006L21.0163 9.2031L20.0777 0.104285H21.3552L21.9809 7.78222L25.5136 0.104285H26.8562L27.5862 7.75615L30.9233 0.104285H32.2008Z" fill="#FFE1F7"/>
<path d="M35.0502 1.02981L34.5027 4.1453H37.8007L37.6443 5.05779H34.3463L33.7727 8.2515H37.4748L37.3053 9.19006H32.417L34.0334 0.0912492H38.9087L38.7392 1.02981H35.0502Z" fill="#FFE1F7"/>
<path d="M44.1581 0.104285C45.0619 0.104285 45.7441 0.299818 46.2046 0.690884C46.6652 1.08195 46.8955 1.60337 46.8955 2.25515C46.8955 2.35943 46.8782 2.53324 46.8434 2.77657C46.7304 3.40228 46.4523 3.95412 46.0091 4.43209C45.5659 4.91006 44.9706 5.22725 44.2232 5.38368L45.8266 9.19006H44.4057L42.8936 5.47493H41.4727L40.8079 9.19006H39.6217L41.2381 0.104285H44.1581ZM45.618 2.77657C45.6441 2.62015 45.6572 2.47675 45.6572 2.3464C45.6572 1.92926 45.5181 1.60772 45.24 1.38177C44.9706 1.15582 44.5535 1.04284 43.9886 1.04284H42.2549L41.6422 4.52333H43.389C44.0321 4.52333 44.5404 4.36691 44.9141 4.05406C45.2878 3.73251 45.5225 3.30668 45.618 2.77657Z" fill="#FFE1F7"/>
<path d="M50.7071 1.02981L50.1596 4.1453H53.4576L53.3012 5.05779H50.0032L49.4296 8.2515H53.1317L52.9622 9.19006H48.0739L49.6903 0.0912492H54.5656L54.3962 1.02981H50.7071Z" fill="#FFE1F7"/>
<path d="M59.7237 0.104285C61.0186 0.104285 62.0223 0.417138 62.7349 1.04284C63.4562 1.66855 63.8169 2.53759 63.8169 3.64995C63.8169 3.99757 63.7865 4.33649 63.7256 4.66673C63.5605 5.5966 63.2216 6.4048 62.7089 7.09134C62.2048 7.76919 61.5574 8.29061 60.7666 8.6556C59.9844 9.01191 59.098 9.19006 58.1073 9.19006H55.2786L56.895 0.104285H59.7237ZM58.2768 8.27757C59.4413 8.27757 60.3885 7.96037 61.1185 7.32598C61.8485 6.68289 62.3135 5.79647 62.5133 4.66673C62.5655 4.35387 62.5915 4.0584 62.5915 3.78031C62.5915 2.91996 62.3352 2.25515 61.8224 1.78587C61.3097 1.3079 60.5537 1.06892 59.5543 1.06892H57.9118L56.6343 8.27757H58.2768Z" fill="#FFE1F7"/>
<path d="M76.7466 2.41158C76.651 2.95038 76.4251 3.39793 76.0688 3.75424C75.7212 4.10185 75.2953 4.35387 74.7913 4.5103C75.2171 4.57982 75.5647 4.78839 75.8341 5.13601C76.1035 5.47493 76.2382 5.87903 76.2382 6.34831C76.2382 6.48736 76.2252 6.62206 76.1991 6.75241C76.1209 7.213 75.9297 7.63014 75.6256 8.00383C75.3301 8.36882 74.939 8.65995 74.4524 8.87721C73.9657 9.08578 73.4182 9.19006 72.8099 9.19006H69.4206L71.0371 0.104285H74.2959C75.1128 0.104285 75.7299 0.278092 76.147 0.625707C76.5728 0.973321 76.7857 1.42522 76.7857 1.9814C76.7857 2.12045 76.7727 2.26384 76.7466 2.41158ZM75.5213 2.55497C75.5387 2.47675 75.5474 2.36812 75.5474 2.22908C75.5474 1.85539 75.417 1.56427 75.1563 1.3557C74.8956 1.14713 74.5176 1.04284 74.0222 1.04284H72.0538L71.5194 4.05406H73.5138C74.0613 4.05406 74.5132 3.9237 74.8695 3.66299C75.2258 3.39359 75.4431 3.02425 75.5213 2.55497ZM75.0259 6.63509C75.052 6.51343 75.065 6.40045 75.065 6.29617C75.065 5.89641 74.9173 5.57921 74.6218 5.34457C74.3264 5.10993 73.9223 4.99261 73.4095 4.99261H71.3499L70.7764 8.2515H72.8751C73.4573 8.2515 73.9396 8.10811 74.322 7.82133C74.7044 7.53455 74.939 7.13914 75.0259 6.63509Z" fill="#FFE1F7"/>
<path d="M85.9143 0.104285L81.9515 5.76171L81.3388 9.19006H80.1526L80.7652 5.76171L78.7838 0.104285H80.1135L81.5343 4.67976L84.5716 0.104285H85.9143Z" fill="#FFE1F7"/>
</g>
</svg>
