<svg width="16" height="16" viewBox="0 0 16 16" fill="none" xmlns="http://www.w3.org/2000/svg">
<g clip-path="url(#clip0_9305_34)">
<path d="M1.00005 1.08868C-0.257282 2.39468 5.14425e-05 3.78202 5.14425e-05 7.99669C5.14425e-05 11.4967 -0.610615 15.0054 2.58538 15.8314C3.58338 16.088 12.426 16.088 13.4227 15.83C14.7534 15.4867 15.836 14.4074 15.984 12.5254C16.0047 12.2627 16.0047 3.73535 15.9834 3.46735C15.826 1.46268 14.592 0.307344 12.966 0.073344C12.5934 0.019344 12.5187 0.00334395 10.6067 1.06152e-05C3.82472 0.00334395 2.33805 -0.298656 1.00005 1.08868Z" fill="#692BC8"/>
<path d="M7.99863 2.09268C5.57796 2.09268 3.27929 1.87734 2.40129 4.13067C2.03862 5.06134 2.09129 6.27001 2.09129 8.00067C2.09129 9.51933 2.04262 10.9467 2.40129 11.87C3.27729 14.1247 5.59463 13.9087 7.99729 13.9087C10.3153 13.9087 12.7053 14.15 13.594 11.87C13.9573 10.93 13.904 9.73933 13.904 8.00067C13.904 5.69267 14.0313 4.20267 12.912 3.08401C11.7786 1.95068 10.246 2.09268 7.99596 2.09268H7.99863ZM7.46929 3.15734C12.5186 3.14934 13.1613 2.58801 12.8066 10.386C12.6806 13.144 10.5806 12.8413 7.99929 12.8413C3.29262 12.8413 3.15729 12.7067 3.15729 7.998C3.15729 3.23468 3.53063 3.16001 7.46929 3.15601V3.15734ZM11.152 4.13801C10.7606 4.13801 10.4433 4.45534 10.4433 4.84667C10.4433 5.23801 10.7606 5.55534 11.152 5.55534C11.5433 5.55534 11.8606 5.23801 11.8606 4.84667C11.8606 4.45534 11.5433 4.13801 11.152 4.13801ZM7.99863 4.96667C6.32329 4.96667 4.96529 6.32534 4.96529 8.00067C4.96529 9.676 6.32329 11.034 7.99863 11.034C9.67396 11.034 11.0313 9.676 11.0313 8.00067C11.0313 6.32534 9.67396 4.96667 7.99863 4.96667ZM7.99863 6.03134C10.602 6.03134 10.6053 9.97 7.99863 9.97C5.39596 9.97 5.39196 6.03134 7.99863 6.03134Z" fill="white"/>
</g>
<defs>
<clipPath id="clip0_9305_34">
<rect width="16" height="16" fill="white"/>
</clipPath>
</defs>
</svg>
