<svg width="14" height="16" viewBox="0 0 14 16" fill="none" xmlns="http://www.w3.org/2000/svg">
<path d="M3.13375 14H0.23125V4.65311H3.13375V14ZM1.68094 3.37812C0.752813 3.37812 0 2.60937 0 1.68124C6.64312e-09 1.23543 0.177098 0.807877 0.492335 0.49264C0.807572 0.177403 1.23513 0.000305176 1.68094 0.000305176C2.12675 0.000305176 2.5543 0.177403 2.86954 0.49264C3.18478 0.807877 3.36188 1.23543 3.36188 1.68124C3.36188 2.60937 2.60875 3.37812 1.68094 3.37812ZM13.9969 14H11.1006V9.44999C11.1006 8.36561 11.0787 6.97499 9.59156 6.97499C8.0825 6.97499 7.85125 8.15311 7.85125 9.37186V14H4.95188V4.65311H7.73562V5.92811H7.77625C8.16375 5.19374 9.11031 4.41874 10.5225 4.41874C13.46 4.41874 14 6.35311 14 8.86561V14H13.9969Z" fill="#692BC8"/>
</svg>
