<svg width="160" height="90" viewBox="0 0 160 90" fill="none" xmlns="http://www.w3.org/2000/svg">
<path d="M4.94938 86.869H9.13058V88.8869H2.4043V76.1979H4.94938V86.869Z" fill="#E3D1FF"/>
<path d="M18.8925 86.4691H13.8387L13.0025 88.8869H10.3301L14.8931 76.1797H17.8563L22.4192 88.8869H19.7287L18.8925 86.4691ZM18.2017 84.433L16.3656 79.1247L14.5295 84.433H18.2017Z" fill="#E3D1FF"/>
<path d="M33.3235 80.0155C33.0326 79.4823 32.6327 79.0763 32.1236 78.7975C31.6146 78.5188 31.0208 78.3794 30.3421 78.3794C29.5907 78.3794 28.9241 78.5491 28.3424 78.8884C27.7606 79.2277 27.3062 79.7125 26.9789 80.3427C26.6517 80.9729 26.4881 81.7001 26.4881 82.5242C26.4881 83.3726 26.6517 84.1119 26.9789 84.7421C27.3183 85.3723 27.7849 85.8571 28.3787 86.1964C28.9726 86.5358 29.6634 86.7054 30.4512 86.7054C31.4207 86.7054 32.2145 86.4509 32.8326 85.9419C33.4507 85.4208 33.8567 84.6997 34.0506 83.7786H29.6876V81.8334H36.5594V84.0513C36.3897 84.936 36.0261 85.7541 35.4686 86.5055C34.9111 87.2569 34.19 87.8628 33.3053 88.3234C32.4327 88.7718 31.451 88.996 30.3603 88.996C29.1362 88.996 28.0273 88.7233 27.0335 88.1779C26.0518 87.6205 25.2762 86.8509 24.7066 85.8692C24.1491 84.8875 23.8703 83.7725 23.8703 82.5242C23.8703 81.2759 24.1491 80.1609 24.7066 79.1793C25.2762 78.1855 26.0518 77.4159 27.0335 76.8705C28.0273 76.313 29.1301 76.0343 30.3421 76.0343C31.7722 76.0343 33.0144 76.3857 34.0688 77.0887C35.1232 77.7795 35.8504 78.7551 36.2503 80.0155H33.3235Z" fill="#E3D1FF"/>
<path d="M44.6959 89.0142C43.5082 89.0142 42.4175 88.7354 41.4237 88.1779C40.4299 87.6205 39.6421 86.8509 39.0604 85.8692C38.4787 84.8754 38.1878 83.7544 38.1878 82.5061C38.1878 81.2699 38.4787 80.1609 39.0604 79.1793C39.6421 78.1855 40.4299 77.4098 41.4237 76.8523C42.4175 76.2948 43.5082 76.0161 44.6959 76.0161C45.8958 76.0161 46.9865 76.2948 47.9682 76.8523C48.962 77.4098 49.7437 78.1855 50.3133 79.1793C50.895 80.1609 51.1859 81.2699 51.1859 82.5061C51.1859 83.7544 50.895 84.8754 50.3133 85.8692C49.7437 86.8509 48.962 87.6205 47.9682 88.1779C46.9744 88.7354 45.8836 89.0142 44.6959 89.0142ZM44.6959 86.7418C45.4595 86.7418 46.1321 86.5721 46.7138 86.2328C47.2956 85.8813 47.75 85.3844 48.0773 84.7421C48.4045 84.0998 48.5681 83.3544 48.5681 82.5061C48.5681 81.6577 48.4045 80.9184 48.0773 80.2882C47.75 79.6459 47.2956 79.155 46.7138 78.8157C46.1321 78.4763 45.4595 78.3067 44.6959 78.3067C43.9324 78.3067 43.2537 78.4763 42.6599 78.8157C42.0781 79.155 41.6237 79.6459 41.2964 80.2882C40.9692 80.9184 40.8056 81.6577 40.8056 82.5061C40.8056 83.3544 40.9692 84.0998 41.2964 84.7421C41.6237 85.3844 42.0781 85.8813 42.6599 86.2328C43.2537 86.5721 43.9324 86.7418 44.6959 86.7418Z" fill="#E3D1FF"/>
<path d="M57.8241 89.0142C56.9394 89.0142 56.1395 88.8627 55.4245 88.5597C54.7215 88.2567 54.1641 87.8204 53.752 87.2508C53.3399 86.6812 53.1278 86.0086 53.1157 85.2329H55.8426C55.879 85.7541 56.0607 86.1661 56.388 86.4691C56.7273 86.7721 57.1879 86.9236 57.7696 86.9236C58.3634 86.9236 58.83 86.7842 59.1694 86.5055C59.5087 86.2146 59.6784 85.8389 59.6784 85.3784C59.6784 85.0027 59.5633 84.6936 59.333 84.4512C59.1027 84.2088 58.8119 84.021 58.4604 83.8877C58.121 83.7422 57.6484 83.5847 57.0424 83.415C56.2183 83.1726 55.5457 82.9363 55.0245 82.706C54.5155 82.4636 54.0732 82.1061 53.6975 81.6335C53.3339 81.1487 53.1521 80.5063 53.1521 79.7065C53.1521 78.9551 53.3399 78.3006 53.7156 77.7431C54.0913 77.1856 54.6185 76.7614 55.2972 76.4706C55.9759 76.1676 56.7516 76.0161 57.6242 76.0161C58.933 76.0161 59.9935 76.3373 60.8055 76.9796C61.6296 77.6098 62.0841 78.4945 62.1689 79.6337H59.3693C59.3451 79.1974 59.1573 78.8399 58.8058 78.5612C58.4665 78.2703 58.012 78.1249 57.4424 78.1249C56.9455 78.1249 56.5455 78.2521 56.2425 78.5066C55.9517 78.7611 55.8062 79.1308 55.8062 79.6156C55.8062 79.9549 55.9153 80.2397 56.1335 80.47C56.3637 80.6881 56.6425 80.8699 56.9697 81.0154C57.309 81.1487 57.7817 81.3062 58.3877 81.488C59.2118 81.7304 59.8844 81.9728 60.4056 82.2152C60.9267 82.4576 61.3751 82.8212 61.7508 83.3059C62.1265 83.7907 62.3144 84.427 62.3144 85.2147C62.3144 85.8934 62.1386 86.5236 61.7872 87.1054C61.4357 87.6871 60.9206 88.1537 60.2419 88.5052C59.5633 88.8445 58.7573 89.0142 57.8241 89.0142Z" fill="#E3D1FF"/>
<path d="M63.8119 87.8871C66.3448 86.2267 68.3385 84.736 69.7928 83.415C71.2471 82.0819 72.0834 80.7912 72.3015 79.5429C72.35 79.2277 72.3743 78.9914 72.3743 78.8339C72.3743 78.2279 72.1925 77.7431 71.8289 77.3795C71.4774 77.016 70.9017 76.8342 70.1019 76.8342C69.1808 76.8342 68.4173 77.125 67.8113 77.7068C67.2053 78.2764 66.7933 79.0338 66.5751 79.9792H65.3389C65.6419 78.6339 66.2358 77.5916 67.1205 76.8523C68.0173 76.1131 69.0778 75.7434 70.3018 75.7434C71.332 75.7434 72.144 75.9979 72.7378 76.5069C73.3438 77.0038 73.6468 77.7189 73.6468 78.6521C73.6468 78.9551 73.6226 79.2338 73.5741 79.4883C73.3196 80.9305 72.4651 82.3364 71.0108 83.7059C69.5565 85.0633 67.8234 86.4024 65.8116 87.7235H72.5197L72.3379 88.796H63.6483L63.8119 87.8871Z" fill="#E3D1FF"/>
<path d="M75.8331 82.3424C76.1967 80.27 76.7966 78.6581 77.6329 77.5068C78.4812 76.3554 79.7356 75.7798 81.3959 75.7798C82.6564 75.7798 83.5593 76.1252 84.1046 76.816C84.6621 77.5068 84.9409 78.4763 84.9409 79.7246C84.9409 80.4397 84.85 81.3123 84.6682 82.3424C84.3046 84.4149 83.6986 86.0328 82.8503 87.1963C82.0019 88.3476 80.7475 88.9233 79.0872 88.9233C77.8268 88.9233 76.9239 88.5839 76.3785 87.9053C75.8331 87.2144 75.5604 86.2449 75.5604 84.9966C75.5604 84.2815 75.6513 83.3968 75.8331 82.3424ZM83.4138 82.3424C83.5956 81.3365 83.6865 80.5003 83.6865 79.8337C83.6865 78.9126 83.4926 78.2037 83.1048 77.7068C82.7291 77.1977 82.0928 76.9432 81.196 76.9432C80.3234 76.9432 79.6144 77.1796 79.069 77.6522C78.5236 78.1128 78.1055 78.7308 77.8147 79.5065C77.5238 80.2821 77.2814 81.2275 77.0875 82.3424C76.8936 83.4453 76.7966 84.2997 76.7966 84.9057C76.7966 85.8147 76.9845 86.5176 77.3602 87.0145C77.7359 87.5114 78.3782 87.7598 79.2871 87.7598C80.1597 87.7598 80.8687 87.5296 81.4141 87.069C81.9595 86.5964 82.3776 85.9722 82.6685 85.1966C82.9593 84.4209 83.2078 83.4695 83.4138 82.3424Z" fill="#E3D1FF"/>
<path d="M86.1445 87.8871C88.6775 86.2267 90.6711 84.736 92.1255 83.415C93.5798 82.0819 94.416 80.7912 94.6342 79.5429C94.6827 79.2277 94.7069 78.9914 94.7069 78.8339C94.7069 78.2279 94.5251 77.7431 94.1615 77.3795C93.8101 77.016 93.2344 76.8342 92.4345 76.8342C91.5134 76.8342 90.7499 77.125 90.1439 77.7068C89.538 78.2764 89.1259 79.0338 88.9078 79.9792H87.6716C87.9746 78.6339 88.5684 77.5916 89.4531 76.8523C90.35 76.1131 91.4104 75.7434 92.6345 75.7434C93.6646 75.7434 94.4766 75.9979 95.0705 76.5069C95.6764 77.0038 95.9794 77.7189 95.9794 78.6521C95.9794 78.9551 95.9552 79.2338 95.9067 79.4883C95.6522 80.9305 94.7978 82.3364 93.3435 83.7059C91.8891 85.0633 90.1561 86.4024 88.1442 87.7235H94.8523L94.6705 88.796H85.9809L86.1445 87.8871Z" fill="#E3D1FF"/>
<path d="M98.6566 79.1793C98.9475 78.0764 99.5292 77.2099 100.402 76.5797C101.287 75.9373 102.341 75.6162 103.565 75.6162C104.631 75.6162 105.45 75.8646 106.019 76.3615C106.589 76.8584 106.874 77.5068 106.874 78.3067C106.874 78.5127 106.855 78.7248 106.819 78.9429C106.686 79.7065 106.346 80.367 105.801 80.9245C105.268 81.482 104.577 81.8274 103.729 81.9607L103.71 82.0516C104.425 82.197 104.983 82.5 105.383 82.9605C105.795 83.4089 106.001 83.9967 106.001 84.7239C106.001 84.8572 105.977 85.0935 105.928 85.4329C105.734 86.4752 105.231 87.3296 104.419 87.9962C103.607 88.6506 102.547 88.9778 101.238 88.9778C100.038 88.9778 99.0929 88.687 98.4021 88.1052C97.7234 87.5114 97.3841 86.663 97.3841 85.5601C97.3841 85.3905 97.3901 85.2632 97.4022 85.1784H98.6384C98.6021 85.9783 98.8202 86.6327 99.2929 87.1417C99.7776 87.6507 100.481 87.9053 101.402 87.9053C102.335 87.9053 103.086 87.6689 103.656 87.1963C104.238 86.7115 104.595 86.0873 104.728 85.3238C104.765 85.1178 104.783 84.9299 104.783 84.7603C104.783 83.2938 103.595 82.5606 101.22 82.5606H100.838L101.038 81.488H101.438C103.91 81.488 105.292 80.6821 105.583 79.0702C105.607 78.9611 105.619 78.8036 105.619 78.5975C105.619 78.0158 105.425 77.5613 105.037 77.2341C104.65 76.8948 104.08 76.7251 103.329 76.7251C102.517 76.7251 101.802 76.9432 101.184 77.3795C100.565 77.8037 100.135 78.4036 99.8928 79.1793H98.6566Z" fill="#E3D1FF"/>
<path d="M27.9595 7.34437C26.8688 6.52025 25.6447 5.95064 24.2873 5.63553C22.9542 5.32043 21.6089 5.16287 20.2516 5.16287H16.2885C14.8827 5.16287 13.5616 5.32043 12.3255 5.63553C11.1135 5.9264 10.0591 6.41118 9.16229 7.08987C8.26545 7.74431 7.5504 8.61691 7.01715 9.70766C6.50813 10.7984 6.25362 12.1194 6.25362 13.6707C6.25362 15.2462 6.50813 16.5794 7.01715 17.6701C7.52616 18.7366 8.22909 19.6092 9.12593 20.2879C10.047 20.9424 11.1135 21.4271 12.3255 21.7423C13.5374 22.0331 14.8584 22.1786 16.2885 22.1786H20.2516C21.512 22.1786 22.7118 22.0452 23.851 21.7786C25.0145 21.4877 26.0568 21.0514 26.9778 20.4697C27.8989 19.8637 28.6867 19.1002 29.3411 18.1791C29.9956 17.2338 30.4682 16.0946 30.7591 14.7615H20.7242V12.58H33.3042V13.6707C33.3042 15.6825 32.9527 17.3793 32.2498 18.7609C31.5469 20.1182 30.6016 21.2211 29.4138 22.0695C28.2261 22.8936 26.8445 23.4875 25.269 23.851C23.6935 24.2146 22.021 24.3964 20.2516 24.3964H16.2885C14.5191 24.3964 12.883 24.2025 11.3801 23.8147C9.87733 23.4269 8.56844 22.8088 7.45345 21.9604C6.3627 21.112 5.50222 20.0092 4.87201 18.6518C4.2418 17.2944 3.92669 15.6341 3.92669 13.6707C3.92669 11.7074 4.2418 10.047 4.87201 8.68963C5.50222 7.33225 6.3627 6.22939 7.45345 5.38103C8.56844 4.53267 9.87733 3.91457 11.3801 3.52675C12.883 3.13893 14.5191 2.94502 16.2885 2.94502H20.2516C21.1484 2.94502 22.0452 2.98138 22.9421 3.0541C23.8389 3.10257 24.7115 3.22377 25.5599 3.41768C26.4082 3.61159 27.2324 3.89034 28.0322 4.25392C28.8564 4.59326 29.6199 5.06592 30.3228 5.67189L27.9595 7.34437ZM33.4133 6.18091C32.5649 5.06592 31.6438 4.16908 30.65 3.49039C29.6562 2.81171 28.6018 2.27845 27.4869 1.89063C26.3961 1.50281 25.2448 1.2483 24.0328 1.12711C22.8209 0.981673 21.5605 0.908956 20.2516 0.908956H16.2885C14.1797 0.908956 12.2527 1.15134 10.5075 1.63612C8.76235 2.09666 7.24742 2.83595 5.96276 3.85398C4.70234 4.87201 3.72066 6.19303 3.01774 7.81703C2.31481 9.41679 1.96335 11.368 1.96335 13.6707C1.96335 15.9734 2.31481 17.9368 3.01774 19.5608C3.72066 21.1605 4.70234 22.4694 5.96276 23.4875C7.24742 24.5055 8.76235 25.2569 10.5075 25.7417C12.2527 26.2022 14.1797 26.4325 16.2885 26.4325H20.2516C22.3361 26.4325 24.2873 26.2143 26.1052 25.778C27.9474 25.3175 29.5472 24.5903 30.9045 23.5965C32.2619 22.5785 33.3284 21.2575 34.1041 19.6335C34.9039 18.0095 35.3039 16.0219 35.3039 13.6707V10.5803H18.6882V16.7612H28.1413C27.7535 17.4156 27.2566 17.961 26.6506 18.3973C26.0446 18.8336 25.3781 19.1851 24.6509 19.4517C23.948 19.6941 23.2087 19.8759 22.4331 19.9971C21.6817 20.094 20.9545 20.1425 20.2516 20.1425H16.2885C15.1978 20.1425 14.1676 20.0334 13.1981 19.8153C12.2285 19.5971 11.3801 19.2457 10.653 18.7609C9.92581 18.2519 9.34408 17.5853 8.90778 16.7612C8.47148 15.937 8.25333 14.9069 8.25333 13.6707C8.25333 12.4588 8.47148 11.4407 8.90778 10.6166C9.34408 9.7925 9.92581 9.12593 10.653 8.61691C11.4044 8.1079 12.2649 7.74431 13.2344 7.52616C14.204 7.30801 15.222 7.19894 16.2885 7.19894H20.2516C21.6817 7.19894 23.0511 7.42921 24.36 7.88975C25.6689 8.32605 26.8324 9.07745 27.8504 10.144L33.4133 6.18091ZM7.78067 26.9778C6.4233 25.8144 5.30831 24.7115 4.43571 23.6692C3.56311 22.627 2.8723 21.5847 2.36329 20.5424C1.87851 19.4759 1.53917 18.3973 1.34526 17.3065C1.15135 16.1916 1.05439 14.9796 1.05439 13.6707C1.05439 11.1984 1.43009 9.10169 2.1815 7.38073C2.9329 5.63553 3.97517 4.21756 5.30831 3.12681C6.66569 2.03606 8.27757 1.2483 10.144 0.763523C12.0104 0.254508 14.0585 0 16.2885 0H20.2516C21.5847 0 22.8694 0.0605971 24.1055 0.181791C25.3417 0.302985 26.5415 0.557493 27.705 0.945314C28.8685 1.3089 29.9835 1.86639 31.05 2.6178C32.1407 3.34496 33.1951 4.32664 34.2131 5.56282C34.9403 6.28998 35.5342 6.89595 35.9947 7.38073C36.4552 7.86551 36.8188 8.27757 37.0854 8.61691C37.3763 8.95626 37.5945 9.235 37.7399 9.45315C37.9096 9.64706 38.055 9.82886 38.1762 9.99853L37.0854 10.7621L39.7396 13.4162V17.3065C39.7396 19.8031 39.3275 21.9119 38.5034 23.6329C37.6793 25.3538 36.5522 26.7476 35.1221 27.8141C33.692 28.9048 32.0074 29.6805 30.0683 30.141C28.1534 30.6258 26.0931 30.8682 23.8874 30.8682H19.9243C17.452 30.8682 15.1493 30.5531 13.0163 29.9229C10.8832 29.3169 9.13805 28.3352 7.78067 26.9778ZM17.7792 11.8528C17.052 11.974 16.3733 12.1679 15.7431 12.4345C15.1372 12.6769 14.6039 13.0163 14.1434 13.4526C13.6828 13.8889 13.3193 14.4342 13.0526 15.0887C12.8102 15.7189 12.689 16.4582 12.689 17.3065C12.689 17.8883 12.7375 18.3731 12.8345 18.7609C13.3435 18.9305 13.8889 19.0517 14.4706 19.1245C15.0523 19.1972 15.6583 19.2335 16.2885 19.2335H19.5608L17.7792 17.6701V11.8528Z" fill="#C966B0"/>
<path d="M49.4118 24.3964V2.94502H51.5933V24.3964H49.4118ZM53.593 26.4325V0.908956H47.4121V26.4325H53.593ZM46.5031 27.3414V0H54.5019L58.0287 3.7449V30.8682H50.248L46.5031 27.3414Z" fill="#C966B0"/>
<path d="M91.9401 7.34437C90.8494 6.52025 89.6253 5.95064 88.268 5.63553C86.9348 5.32043 85.5896 5.16287 84.2322 5.16287H80.2691C78.8633 5.16287 77.5423 5.32043 76.3061 5.63553C75.0941 5.9264 74.0398 6.41118 73.1429 7.08987C72.2461 7.74431 71.531 8.61691 70.9978 9.70766C70.4888 10.7984 70.2343 12.1194 70.2343 13.6707C70.2343 15.2462 70.4888 16.5794 70.9978 17.6701C71.5068 18.7366 72.2097 19.6092 73.1066 20.2879C74.0276 20.9424 75.0941 21.4271 76.3061 21.7423C77.518 22.0331 78.839 22.1786 80.2691 22.1786H84.2322C85.4926 22.1786 86.6924 22.0452 87.8317 21.7786C88.9951 21.4877 90.0374 21.0514 90.9585 20.4697C91.8796 19.8637 92.6673 19.1002 93.3218 18.1791C93.9762 17.2338 94.4489 16.0946 94.7397 14.7615H84.7048V12.58H97.2848V13.6707C97.2848 15.6825 96.9334 17.3793 96.2304 18.7609C95.5275 20.1182 94.5822 21.2211 93.3945 22.0695C92.2068 22.8936 90.8252 23.4875 89.2496 23.851C87.6741 24.2146 86.0016 24.3964 84.2322 24.3964H80.2691C78.4997 24.3964 76.8636 24.2025 75.3608 23.8147C73.858 23.4269 72.5491 22.8088 71.4341 21.9604C70.3433 21.112 69.4828 20.0092 68.8526 18.6518C68.2224 17.2944 67.9073 15.6341 67.9073 13.6707C67.9073 11.7074 68.2224 10.047 68.8526 8.68963C69.4828 7.33225 70.3433 6.22939 71.4341 5.38103C72.5491 4.53267 73.858 3.91457 75.3608 3.52675C76.8636 3.13893 78.4997 2.94502 80.2691 2.94502H84.2322C85.129 2.94502 86.0259 2.98138 86.9227 3.0541C87.8195 3.10257 88.6921 3.22377 89.5405 3.41768C90.3889 3.61159 91.213 3.89034 92.0129 4.25392C92.837 4.59326 93.6005 5.06592 94.3034 5.67189L91.9401 7.34437ZM97.3939 6.18091C96.5455 5.06592 95.6245 4.16908 94.6307 3.49039C93.6369 2.81171 92.5825 2.27845 91.4675 1.89063C90.3767 1.50281 89.2254 1.2483 88.0135 1.12711C86.8015 0.981673 85.5411 0.908956 84.2322 0.908956H80.2691C78.1604 0.908956 76.2334 1.15134 74.4882 1.63612C72.743 2.09666 71.2281 2.83595 69.9434 3.85398C68.683 4.87201 67.7013 6.19303 66.9984 7.81703C66.2954 9.41679 65.944 11.368 65.944 13.6707C65.944 15.9734 66.2954 17.9368 66.9984 19.5608C67.7013 21.1605 68.683 22.4694 69.9434 23.4875C71.2281 24.5055 72.743 25.2569 74.4882 25.7417C76.2334 26.2022 78.1604 26.4325 80.2691 26.4325H84.2322C86.3167 26.4325 88.268 26.2143 90.0859 25.778C91.928 25.3175 93.5278 24.5903 94.8852 23.5965C96.2425 22.5785 97.3091 21.2575 98.0847 19.6335C98.8846 18.0095 99.2845 16.0219 99.2845 13.6707V10.5803H82.6688V16.7612H92.1219C91.7341 17.4156 91.2372 17.961 90.6312 18.3973C90.0253 18.8336 89.3587 19.1851 88.6316 19.4517C87.9286 19.6941 87.1893 19.8759 86.4137 19.9971C85.6623 20.094 84.9351 20.1425 84.2322 20.1425H80.2691C79.1784 20.1425 78.1482 20.0334 77.1787 19.8153C76.2091 19.5971 75.3608 19.2457 74.6336 18.7609C73.9064 18.2519 73.3247 17.5853 72.8884 16.7612C72.4521 15.937 72.234 14.9069 72.234 13.6707C72.234 12.4588 72.4521 11.4407 72.8884 10.6166C73.3247 9.7925 73.9064 9.12593 74.6336 8.61691C75.385 8.1079 76.2455 7.74431 77.215 7.52616C78.1846 7.30801 79.2026 7.19894 80.2691 7.19894H84.2322C85.6623 7.19894 87.0318 7.42921 88.3407 7.88975C89.6496 8.32605 90.813 9.07745 91.8311 10.144L97.3939 6.18091ZM71.7613 26.9778C70.4039 25.8144 69.2889 24.7115 68.4163 23.6692C67.5437 22.627 66.8529 21.5847 66.3439 20.5424C65.8591 19.4759 65.5198 18.3973 65.3259 17.3065C65.132 16.1916 65.035 14.9796 65.035 13.6707C65.035 11.1984 65.4107 9.10169 66.1621 7.38073C66.9135 5.63553 67.9558 4.21756 69.2889 3.12681C70.6463 2.03606 72.2582 1.2483 74.1246 0.763523C75.991 0.254508 78.0392 0 80.2691 0H84.2322C85.5653 0 86.85 0.0605971 88.0862 0.181791C89.3224 0.302985 90.5222 0.557493 91.6856 0.945314C92.8491 1.3089 93.9641 1.86639 95.0306 2.6178C96.1214 3.34496 97.1757 4.32664 98.1938 5.56282C98.9209 6.28998 99.5148 6.89595 99.9753 7.38073C100.436 7.86551 100.799 8.27757 101.066 8.61691C101.357 8.95626 101.575 9.235 101.721 9.45315C101.89 9.64706 102.036 9.82886 102.157 9.99853L101.066 10.7621L103.72 13.4162V17.3065C103.72 19.8031 103.308 21.9119 102.484 23.6329C101.66 25.3538 100.533 26.7476 99.1027 27.8141C97.6726 28.9048 95.988 29.6805 94.0489 30.141C92.1341 30.6258 90.0738 30.8682 87.868 30.8682H83.905C81.4326 30.8682 79.1299 30.5531 76.9969 29.9229C74.8639 29.3169 73.1187 28.3352 71.7613 26.9778ZM81.7598 11.8528C81.0327 11.974 80.354 12.1679 79.7238 12.4345C79.1178 12.6769 78.5845 13.0163 78.124 13.4526C77.6635 13.8889 77.2999 14.4342 77.0332 15.0887C76.7909 15.7189 76.6697 16.4582 76.6697 17.3065C76.6697 17.8883 76.7181 18.3731 76.8151 18.7609C77.3241 18.9305 77.8695 19.0517 78.4512 19.1245C79.033 19.1972 79.6389 19.2335 80.2691 19.2335H83.5414L81.7598 17.6701V11.8528Z" fill="#C966B0"/>
<path d="M14.2161 54.7738C15.428 51.7681 16.6763 48.811 17.961 45.9023C19.2457 42.9694 20.5061 40.0123 21.7423 37.0309H23.5238L31.05 54.7374C32.2862 51.7803 33.5223 48.8352 34.7585 45.9023C35.9947 42.9694 37.2188 40.0123 38.4307 37.0309H40.9758C39.4972 40.6425 38.0186 44.2177 36.5401 47.7566C35.0615 51.2955 33.5829 54.8707 32.1044 58.4823H30.2501L22.6512 40.7395L14.9796 58.4823H13.1981C11.7437 54.8707 10.2773 51.2955 8.7987 47.7566C7.32013 44.1935 5.82944 40.6183 4.32664 37.0309H6.87172L14.2161 54.7738ZM11.8892 60.5184H16.3976C17.4156 58.046 18.4336 55.61 19.4517 53.2104C20.494 50.7865 21.5483 48.3505 22.6148 45.9023L28.8685 60.5184H33.4133L43.9572 34.9948H37.0854C36.0917 37.4187 35.0857 39.8305 34.0677 42.2301C33.0739 44.6056 32.068 47.0052 31.05 49.4291L24.8691 34.9948H20.4334L14.2161 49.5018L8.18061 34.9948H1.34526L11.8892 60.5184ZM8.76235 34.0859L12.3255 37.8308L15.1978 44.8116C15.9734 43.0179 16.749 41.2364 17.5247 39.4669C18.3003 37.6975 19.076 35.9038 19.8516 34.0859H25.4872L29.0503 37.8308L31.9953 44.8116L32.4316 43.7936C32.577 43.4542 32.7346 43.0906 32.9042 42.7028C33.0982 42.2907 33.2557 41.915 33.3769 41.5757C33.9102 40.3395 34.4434 39.0791 34.9767 37.7944C35.5099 36.4855 36.0189 35.2494 36.5037 34.0859H45.3024L48.7565 37.8308L37.5581 64.9541H31.9589L28.2504 61.4273L25.1236 54.1557C24.3479 55.9736 23.5723 57.7915 22.7966 59.6094C22.021 61.4031 21.2696 63.1846 20.5424 64.9541H15.016L11.3074 61.4273L0 34.0859H8.76235Z" fill="#C966B0"/>
<path d="M72.591 50.5926L64.9194 39.7214L57.066 50.5926H72.591ZM68.6643 48.6292H60.9564L64.8467 43.1755L68.6643 48.6292ZM78.0084 58.4823L74.0817 52.8468H55.5026C54.8239 53.7678 54.1574 54.7132 53.5029 55.6827C52.8727 56.628 52.2183 57.5612 51.5396 58.4823H48.6309C51.2002 54.8707 53.7574 51.2955 56.3025 47.7566C58.8718 44.2177 61.429 40.6425 63.9741 37.0309H65.7193L80.7353 58.4823H78.0084ZM62.9924 34.9948L44.8133 60.5184H52.5212L56.5206 54.8828H72.9546L76.9176 60.5184H84.6256L66.81 34.9948H62.9924ZM70.8822 37.8308L89.7885 64.9541H80.1172L76.445 61.4273L74.9543 59.3185H60.5928C60.3019 59.7548 59.9747 60.2154 59.6111 60.7002C59.2718 61.1849 58.9203 61.6697 58.5567 62.1545C58.2174 62.6635 57.878 63.1483 57.5387 63.6088C57.1993 64.0936 56.8842 64.542 56.5934 64.9541H46.8857L43.0317 61.4273L62.5198 34.0859H67.2827L70.8822 37.8308Z" fill="#C966B0"/>
<path d="M97.5984 58.4823C95.0291 54.8707 92.4719 51.2955 89.9268 47.7566C87.3817 44.2177 84.8245 40.6425 82.2552 37.0309H85.1639L98.5437 55.7918C100.749 52.665 102.931 49.5503 105.088 46.4477C107.27 43.3209 109.451 40.182 111.633 37.0309H114.36L99.3436 58.4823H97.5984ZM110.542 34.9948C108.53 37.9035 106.53 40.8001 104.543 43.6845C102.555 46.5689 100.531 49.4533 98.471 52.3378L86.1456 34.9948H78.4376L96.6167 60.5184H100.434L118.25 34.9948H110.542ZM123.413 37.8308L104.506 64.9541H99.8163L96.1441 61.4273L76.656 34.0859H87.3454L90.2177 37.8308L98.9073 50.1562C99.6587 49.114 100.41 48.0475 101.162 46.9567C101.937 45.8417 102.761 44.654 103.634 43.3936C104.531 42.109 105.5 40.7152 106.543 39.2124C107.585 37.6854 108.76 35.9765 110.069 34.0859H119.959L123.413 37.8308Z" fill="#C966B0"/>
<path d="M131.241 46.6659H149.747V48.8474H131.241V56.2644H153.528V58.4823H128.986V37.0309H153.492V39.2488H131.241V46.6659ZM133.24 41.2848H155.528V34.9948H126.95V60.5184H155.564V54.2284H133.24V50.8471H151.747V44.6661H133.24V41.2848ZM126.041 61.4273V34.0859H156.437L159.964 37.8308V45.7205H154.401L156.182 47.5021V53.3194L160 57.0643V64.9541H129.786L126.041 61.4273Z" fill="#C966B0"/>
</svg>
