<svg width="28" height="28" viewBox="0 0 28 28" fill="none" xmlns="http://www.w3.org/2000/svg">
<rect width="28" height="28" rx="4" fill="#D6317E"/>
<path opacity="0.4" d="M12.5 20C12.5 20.2652 12.6054 20.5196 12.7929 20.7071C12.9804 20.8946 13.2348 21 13.5 21H14.5C14.7652 21 15.0196 20.8946 15.2071 20.7071C15.3946 20.5196 15.5 20.2652 15.5 20V15.5H12.5V20ZM14.5 7H13.5C13.2348 7 12.9804 7.10536 12.7929 7.29289C12.6054 7.48043 12.5 7.73478 12.5 8V12.5H15.5V8C15.5 7.73478 15.3946 7.48043 15.2071 7.29289C15.0196 7.10536 14.7652 7 14.5 7Z" fill="#FFE1F7"/>
<path d="M21 13.5V14.5C21 14.7652 20.8946 15.0196 20.7071 15.2071C20.5196 15.3946 20.2652 15.5 20 15.5H8C7.73478 15.5 7.48043 15.3946 7.29289 15.2071C7.10536 15.0196 7 14.7652 7 14.5V13.5C7 13.2348 7.10536 12.9804 7.29289 12.7929C7.48043 12.6054 7.73478 12.5 8 12.5H20C20.2652 12.5 20.5196 12.6054 20.7071 12.7929C20.8946 12.9804 21 13.2348 21 13.5Z" fill="#FFE1F7"/>
</svg>
